<svg xmlns="http://www.w3.org/2000/svg" viewBox="0 0 1024 1024">
  <defs>
    <linearGradient id="bg" x1="0" y1="0" x2="1" y2="1"><stop offset="0" stop-color="#2AA3FF"/><stop offset="1" stop-color="#0058E0"/></linearGradient>
    <linearGradient id="gloss" x1="0" y1="0" x2="0" y2="1"><stop offset="0" stop-color="#FFFFFF" stop-opacity="0.16"/><stop offset="0.55" stop-color="#FFFFFF" stop-opacity="0"/></linearGradient>
    <linearGradient id="phone" x1="0" y1="0" x2="0" y2="1"><stop offset="0" stop-color="#FFFFFF"/><stop offset="1" stop-color="#E3EEFF"/></linearGradient>
  </defs>
  <rect width="1024" height="1024" fill="url(#bg)"/>
  <rect width="1024" height="1024" fill="url(#gloss)"/>
  <g fill="none" stroke="#FFFFFF" stroke-width="60" stroke-linecap="round"><path d="M 213.2 403.2 A 318 318 0 0 1 740.8 291.1"/><path d="M 810.8 620.8 A 318 318 0 0 1 283.2 732.9"/></g>
  <g fill="#FFFFFF" stroke="#FFFFFF" stroke-width="10" stroke-linejoin="round"><path d="M 803.3 249.7 L 804.7 387.7 L 693.3 348.7 Z"/><path d="M 220.7 774.3 L 219.3 636.3 L 330.7 675.3 Z"/></g>
  <rect x="410" y="302" width="204" height="420" rx="52" fill="url(#phone)"/>
  <rect x="434" y="326" width="88" height="88" rx="26" fill="#0058E0" fill-opacity="0.14"/>
  <circle cx="457" cy="349" r="15" fill="#0A3A8C"/>
  <circle cx="457" cy="391" r="15" fill="#0A3A8C"/>
  <circle cx="498" cy="370" r="15" fill="#0A3A8C"/>
</svg>
